<?xml version="1.0" standalone="no"?><!DOCTYPE svg PUBLIC "-//W3C//DTD SVG 1.1//EN" "http://www.w3.org/Graphics/SVG/1.1/DTD/svg11.dtd"><svg t="1623380787416" class="icon" viewBox="0 0 1024 1024" version="1.1" xmlns="http://www.w3.org/2000/svg" p-id="3266" xmlns:xlink="http://www.w3.org/1999/xlink" width="200" height="200"><defs><style type="text/css"></style></defs><path d="M809.337 122c47.082 0 85.25 39.073 85.25 87.273v605.454c0 48.2-38.168 87.273-85.25 87.273H215.25c-47.082 0-85.25-39.073-85.25-87.273V209.273c0-48.2 38.168-87.273 85.25-87.273h594.087z m-1.345 59.925H216.595c-14.647 0-26.52 12.21-26.52 27.273v605.455c0 15.062 11.873 27.272 26.52 27.272h591.397c14.647 0 26.52-12.21 26.52-27.272V209.198c0-15.062-11.873-27.273-26.52-27.273z m-98.776 450.448v60.075H316v-60.075h393.216z m0-150.186v60.074H316v-60.074h393.216z m0-150.187v60.075H316V332h393.216z" p-id="3267"></path></svg>