<?xml version="1.0" standalone="no"?><!DOCTYPE svg PUBLIC "-//W3C//DTD SVG 1.1//EN" "http://www.w3.org/Graphics/SVG/1.1/DTD/svg11.dtd"><svg t="1623380873324" class="icon" viewBox="0 0 1024 1024" version="1.1" xmlns="http://www.w3.org/2000/svg" p-id="7563" xmlns:xlink="http://www.w3.org/1999/xlink" width="200" height="200"><defs><style type="text/css"></style></defs><path d="M317.806 199.9a36.571 36.571 0 0 1-6.583 51.273A329.143 329.143 0 1 0 778.97 704.658a36.571 36.571 0 1 1 59.246 42.862 402.286 402.286 0 1 1-571.684-554.203 36.571 36.571 0 0 1 51.273 6.582zM512 109.713A402.286 402.286 0 0 1 914.286 512a36.571 36.571 0 0 1-36.572 36.571H512A36.571 36.571 0 0 1 475.429 512V146.286A36.571 36.571 0 0 1 512 109.714z m36.571 75.264v290.45h290.524l-1.097-9.362A329.362 329.362 0 0 0 557.86 186.002l-9.29-0.95z" p-id="7564"></path></svg>